<svg xmlns="http://www.w3.org/2000/svg" xmlns:xlink="http://www.w3.org/1999/xlink" width="200" zoomAndPan="magnify" viewBox="0 0 150 74.999997" height="100" preserveAspectRatio="xMidYMid meet" version="1.0"><defs><g/><clipPath id="6aceba9e4e"><path d="M 3.449219 14.113281 L 25 14.113281 L 25 24 L 3.449219 24 Z M 3.449219 14.113281 " clip-rule="nonzero"/></clipPath><clipPath id="f27be9af89"><path d="M 27 14.113281 L 48.449219 14.113281 L 48.449219 24 L 27 24 Z M 27 14.113281 " clip-rule="nonzero"/></clipPath><clipPath id="aa7e0a94c5"><path d="M 25 21 L 28 21 L 28 53.113281 L 25 53.113281 Z M 25 21 " clip-rule="nonzero"/></clipPath><clipPath id="ff66ce9682"><path d="M 17 22 L 35 22 L 35 53.113281 L 17 53.113281 Z M 17 22 " clip-rule="nonzero"/></clipPath><clipPath id="7d5cf73e63"><path d="M 18 22 L 36 22 L 36 53.113281 L 18 53.113281 Z M 18 22 " clip-rule="nonzero"/></clipPath><clipPath id="602c8e06c7"><path d="M 85.730469 25.238281 L 147.230469 25.238281 L 147.230469 49.988281 L 85.730469 49.988281 Z M 85.730469 25.238281 " clip-rule="nonzero"/></clipPath></defs><path fill="#0e9ebe" d="M 28.292969 21.746094 C 28.292969 22.929688 27.339844 23.882812 26.160156 23.882812 C 24.980469 23.882812 24.023438 22.929688 24.023438 21.746094 C 24.023438 20.570312 24.980469 19.613281 26.160156 19.613281 C 27.339844 19.613281 28.292969 20.570312 28.292969 21.746094 " fill-opacity="1" fill-rule="nonzero"/><g clip-path="url(#6aceba9e4e)"><path fill="#0e9ebe" d="M 24.410156 20.800781 C 24.410156 20.800781 22.082031 20.777344 20.035156 17.800781 C 19.390625 16.863281 18.3125 15.910156 17.332031 15.464844 C 14.347656 14.109375 11.875 15.699219 9.328125 17.179688 C 7.527344 18.230469 5.566406 18.996094 3.46875 19.113281 C 3.683594 19.097656 4.761719 20.085938 5.191406 20.199219 C 5.644531 20.316406 6.136719 20.320312 6.601562 20.300781 C 8.21875 20.21875 9.804688 19.5 11.199219 18.730469 C 11.199219 18.730469 10.359375 20.777344 7.382812 21.335938 C 7.382812 21.335938 10.546875 23.292969 14.453125 20.128906 C 14.453125 20.128906 14.269531 21.875 11.757812 23.09375 C 11.757812 23.09375 15.199219 23.800781 17.617188 20.800781 C 17.617188 20.800781 17.804688 21.925781 16.5 23.167969 C 16.5 23.167969 18.082031 23.847656 20.59375 21.988281 C 20.59375 21.988281 23.015625 21.429688 24.410156 21.988281 L 24.410156 20.800781 " fill-opacity="1" fill-rule="nonzero"/></g><g clip-path="url(#f27be9af89)"><path fill="#0e9ebe" d="M 27.46875 20.800781 C 27.46875 20.800781 29.792969 20.777344 31.839844 17.800781 C 32.484375 16.863281 33.566406 15.910156 34.542969 15.464844 C 37.527344 14.109375 40.003906 15.699219 42.550781 17.179688 C 44.351562 18.230469 46.3125 18.996094 48.410156 19.113281 C 48.195312 19.097656 47.117188 20.085938 46.6875 20.199219 C 46.234375 20.316406 45.738281 20.320312 45.277344 20.300781 C 43.660156 20.21875 42.074219 19.5 40.679688 18.730469 C 40.679688 18.730469 41.515625 20.777344 44.496094 21.335938 C 44.496094 21.335938 41.332031 23.292969 37.421875 20.128906 C 37.421875 20.128906 37.609375 21.875 40.121094 23.09375 C 40.121094 23.09375 36.679688 23.800781 34.261719 20.800781 C 34.261719 20.800781 34.074219 21.925781 35.375 23.167969 C 35.375 23.167969 33.792969 23.847656 31.28125 21.988281 C 31.28125 21.988281 28.863281 21.429688 27.46875 21.988281 L 27.46875 20.800781 " fill-opacity="1" fill-rule="nonzero"/></g><g clip-path="url(#aa7e0a94c5)"><path fill="#0e9ebe" d="M 26.785156 53.179688 L 25.960938 53.179688 L 25.09375 21.746094 L 27.226562 21.746094 L 26.785156 53.179688 " fill-opacity="1" fill-rule="nonzero"/></g><g clip-path="url(#ff66ce9682)"><path fill="#0e9ebe" d="M 24.527344 25.6875 C 24.527344 25.6875 24.46875 25.683594 24.359375 25.679688 C 24.304688 25.675781 24.234375 25.675781 24.152344 25.671875 C 24.078125 25.667969 23.996094 25.667969 23.898438 25.664062 C 23.519531 25.65625 22.941406 25.652344 22.300781 25.746094 C 21.652344 25.84375 20.957031 26.054688 20.4375 26.542969 C 20.367188 26.597656 20.3125 26.671875 20.25 26.742188 C 20.179688 26.808594 20.132812 26.894531 20.074219 26.976562 L 20.015625 27.054688 C 20.054688 26.980469 20.023438 27.039062 20.03125 27.027344 L 20.023438 27.039062 L 19.996094 27.089844 C 19.960938 27.152344 19.921875 27.21875 19.886719 27.285156 C 19.871094 27.324219 19.851562 27.359375 19.832031 27.398438 C 19.8125 27.433594 19.792969 27.492188 19.773438 27.535156 C 19.617188 27.925781 19.566406 28.3125 19.65625 28.71875 C 19.742188 29.121094 19.996094 29.5625 20.394531 29.960938 C 20.789062 30.359375 21.328125 30.710938 21.925781 30.960938 C 22.078125 31.019531 22.230469 31.078125 22.386719 31.125 L 22.507812 31.160156 C 22.5 31.160156 22.535156 31.167969 22.5 31.160156 L 22.519531 31.164062 L 22.554688 31.175781 L 22.628906 31.191406 L 22.773438 31.230469 L 22.898438 31.257812 C 22.972656 31.273438 23.054688 31.292969 23.148438 31.308594 C 23.238281 31.324219 23.324219 31.339844 23.417969 31.351562 C 23.601562 31.382812 23.792969 31.40625 23.984375 31.429688 C 24.757812 31.515625 25.589844 31.554688 26.460938 31.609375 C 27.332031 31.664062 28.242188 31.730469 29.183594 31.910156 C 30.121094 32.089844 31.113281 32.386719 32.007812 32.96875 C 32.453125 33.257812 32.875 33.609375 33.210938 34.03125 L 33.320312 34.160156 C 33.363281 34.214844 33.410156 34.285156 33.453125 34.347656 C 33.535156 34.476562 33.632812 34.609375 33.695312 34.738281 L 33.882812 35.128906 C 33.929688 35.265625 33.972656 35.40625 34.015625 35.542969 C 34.167969 36.109375 34.183594 36.726562 34.035156 37.300781 C 33.890625 37.875 33.59375 38.40625 33.203125 38.824219 C 32.808594 39.238281 32.335938 39.546875 31.847656 39.773438 C 31.597656 39.867188 31.347656 39.976562 31.09375 40.027344 C 30.964844 40.058594 30.847656 40.097656 30.707031 40.121094 L 30.371094 40.183594 C 29.410156 40.34375 28.5 40.402344 27.605469 40.484375 C 26.71875 40.566406 25.855469 40.664062 25.046875 40.878906 C 24.644531 40.984375 24.253906 41.109375 23.882812 41.28125 L 23.746094 41.34375 L 23.726562 41.347656 C 23.734375 41.34375 23.683594 41.371094 23.742188 41.339844 L 23.707031 41.359375 L 23.632812 41.402344 L 23.492188 41.480469 L 23.421875 41.523438 L 23.386719 41.542969 L 23.363281 41.5625 C 23.304688 41.613281 23.238281 41.664062 23.175781 41.714844 C 23.109375 41.765625 23.046875 41.839844 22.984375 41.902344 C 22.742188 42.175781 22.527344 42.488281 22.40625 42.835938 C 22.363281 42.921875 22.347656 43.015625 22.320312 43.101562 C 22.292969 43.191406 22.265625 43.277344 22.253906 43.367188 L 22.210938 43.621094 C 22.207031 43.722656 22.203125 43.828125 22.199219 43.929688 L 22.195312 44.007812 L 22.203125 44.066406 L 22.214844 44.191406 L 22.222656 44.316406 L 22.253906 44.441406 C 22.28125 44.617188 22.347656 44.78125 22.414062 44.9375 C 22.554688 45.253906 22.785156 45.527344 23.050781 45.75 C 23.320312 45.972656 23.632812 46.148438 23.960938 46.273438 C 24.292969 46.394531 24.640625 46.472656 24.984375 46.511719 C 25.160156 46.519531 25.332031 46.539062 25.503906 46.53125 C 25.671875 46.527344 25.863281 46.519531 26.039062 46.511719 C 26.214844 46.503906 26.40625 46.507812 26.585938 46.503906 C 26.765625 46.515625 26.945312 46.515625 27.121094 46.535156 C 27.824219 46.59375 28.511719 46.742188 29.09375 47.070312 C 29.382812 47.234375 29.644531 47.441406 29.84375 47.695312 C 30.042969 47.941406 30.183594 48.226562 30.253906 48.515625 C 30.324219 48.804688 30.339844 49.089844 30.324219 49.359375 C 30.300781 49.628906 30.261719 49.886719 30.1875 50.125 C 30.058594 50.601562 29.871094 51.011719 29.683594 51.371094 C 29.304688 52.082031 28.925781 52.59375 28.660156 52.933594 C 28.535156 53.105469 28.425781 53.230469 28.355469 53.316406 C 28.285156 53.402344 28.25 53.449219 28.25 53.449219 C 28.25 53.449219 28.285156 53.402344 28.351562 53.3125 C 28.414062 53.222656 28.515625 53.09375 28.636719 52.914062 C 28.878906 52.5625 29.230469 52.035156 29.570312 51.3125 C 29.734375 50.953125 29.898438 50.539062 30 50.078125 C 30.058594 49.847656 30.082031 49.601562 30.09375 49.351562 C 30.09375 49.101562 30.066406 48.84375 29.992188 48.589844 C 29.84375 48.082031 29.453125 47.648438 28.925781 47.390625 C 28.394531 47.128906 27.757812 47.019531 27.09375 46.996094 C 26.929688 46.984375 26.757812 46.996094 26.589844 46.992188 C 26.417969 47.003906 26.253906 47.007812 26.074219 47.023438 C 25.890625 47.042969 25.722656 47.058594 25.527344 47.070312 C 25.332031 47.089844 25.140625 47.078125 24.945312 47.078125 C 24.550781 47.054688 24.152344 46.988281 23.757812 46.863281 C 23.363281 46.742188 22.976562 46.550781 22.628906 46.289062 C 22.277344 46.027344 21.957031 45.6875 21.746094 45.273438 C 21.644531 45.066406 21.550781 44.851562 21.496094 44.625 L 21.453125 44.453125 L 21.425781 44.273438 L 21.402344 44.089844 L 21.390625 43.996094 L 21.390625 43.917969 C 21.390625 43.816406 21.390625 43.710938 21.390625 43.605469 L 21.390625 43.585938 C 21.386719 43.585938 21.390625 43.527344 21.390625 43.542969 L 21.394531 43.496094 L 21.40625 43.410156 L 21.425781 43.238281 C 21.433594 43.117188 21.460938 43.003906 21.488281 42.890625 C 21.519531 42.777344 21.535156 42.65625 21.582031 42.546875 L 21.707031 42.210938 C 21.757812 42.105469 21.8125 42 21.867188 41.890625 C 21.917969 41.78125 21.992188 41.683594 22.058594 41.582031 C 22.125 41.480469 22.195312 41.378906 22.28125 41.289062 C 22.363281 41.195312 22.4375 41.101562 22.535156 41.011719 C 22.636719 40.921875 22.738281 40.832031 22.84375 40.746094 L 22.882812 40.714844 L 22.917969 40.691406 L 22.984375 40.648438 L 23.121094 40.558594 L 23.191406 40.515625 L 23.226562 40.492188 C 23.292969 40.453125 23.253906 40.476562 23.277344 40.464844 L 23.296875 40.457031 L 23.453125 40.378906 C 23.867188 40.160156 24.304688 39.996094 24.75 39.851562 C 25.644531 39.570312 26.5625 39.417969 27.464844 39.289062 C 28.367188 39.164062 29.265625 39.050781 30.101562 38.871094 L 30.4375 38.792969 C 30.523438 38.769531 30.621094 38.734375 30.714844 38.707031 C 30.90625 38.660156 31.074219 38.566406 31.25 38.496094 C 31.578125 38.320312 31.875 38.097656 32.101562 37.835938 C 32.550781 37.304688 32.671875 36.617188 32.464844 35.996094 L 32.378906 35.769531 C 32.335938 35.695312 32.292969 35.621094 32.253906 35.546875 C 32.238281 35.507812 32.214844 35.480469 32.191406 35.453125 L 32.128906 35.363281 C 32.105469 35.332031 32.09375 35.308594 32.0625 35.269531 L 31.949219 35.148438 C 31.703125 34.867188 31.40625 34.648438 31.085938 34.460938 C 30.441406 34.085938 29.675781 33.886719 28.875 33.773438 C 28.070312 33.664062 27.230469 33.640625 26.382812 33.628906 C 25.535156 33.617188 24.679688 33.625 23.800781 33.570312 C 23.582031 33.554688 23.363281 33.539062 23.140625 33.515625 C 23.03125 33.503906 22.917969 33.492188 22.808594 33.476562 C 22.699219 33.464844 22.578125 33.445312 22.460938 33.421875 L 22.285156 33.394531 L 22.0625 33.347656 L 22.027344 33.339844 L 22.007812 33.339844 L 21.964844 33.328125 L 21.792969 33.285156 C 21.566406 33.230469 21.34375 33.160156 21.121094 33.082031 C 20.25 32.769531 19.449219 32.320312 18.761719 31.703125 C 18.082031 31.09375 17.507812 30.292969 17.246094 29.363281 C 17.113281 28.902344 17.058594 28.421875 17.082031 27.960938 C 17.101562 27.5 17.195312 27.0625 17.328125 26.667969 C 17.363281 26.566406 17.390625 26.472656 17.4375 26.367188 C 17.480469 26.265625 17.527344 26.164062 17.570312 26.0625 C 17.605469 25.992188 17.640625 25.921875 17.675781 25.855469 L 17.699219 25.804688 L 17.707031 25.792969 C 17.71875 25.769531 17.6875 25.820312 17.734375 25.742188 L 17.753906 25.710938 L 17.828125 25.582031 C 17.933594 25.417969 18.03125 25.25 18.15625 25.097656 C 18.273438 24.945312 18.390625 24.792969 18.527344 24.660156 C 19.050781 24.109375 19.65625 23.722656 20.222656 23.464844 C 20.789062 23.207031 21.320312 23.054688 21.785156 22.964844 C 22.25 22.871094 22.664062 22.820312 23.011719 22.789062 C 23.363281 22.757812 23.648438 22.746094 23.890625 22.742188 C 24.011719 22.738281 24.117188 22.734375 24.207031 22.734375 C 24.289062 22.734375 24.359375 22.730469 24.414062 22.730469 C 24.523438 22.730469 24.582031 22.730469 24.582031 22.730469 C 25.398438 22.726562 26.066406 23.382812 26.070312 24.199219 C 26.074219 25.015625 25.417969 25.683594 24.601562 25.6875 C 24.578125 25.6875 24.550781 25.6875 24.527344 25.6875 " fill-opacity="1" fill-rule="nonzero"/></g><g clip-path="url(#7d5cf73e63)"><path fill="#0e9ebe" d="M 28.496094 22.730469 C 28.496094 22.730469 28.554688 22.730469 28.664062 22.730469 C 28.71875 22.730469 28.789062 22.734375 28.871094 22.734375 C 28.960938 22.734375 29.066406 22.738281 29.1875 22.742188 C 29.429688 22.746094 29.714844 22.757812 30.066406 22.789062 C 30.414062 22.820312 30.824219 22.871094 31.292969 22.964844 C 31.757812 23.054688 32.289062 23.207031 32.855469 23.464844 C 33.421875 23.722656 34.027344 24.109375 34.550781 24.660156 C 34.6875 24.792969 34.804688 24.945312 34.921875 25.097656 C 35.046875 25.25 35.144531 25.417969 35.246094 25.582031 L 35.324219 25.710938 L 35.34375 25.742188 C 35.386719 25.820312 35.359375 25.769531 35.371094 25.792969 L 35.378906 25.804688 L 35.402344 25.855469 C 35.4375 25.921875 35.472656 25.992188 35.503906 26.0625 C 35.550781 26.164062 35.59375 26.265625 35.640625 26.367188 C 35.6875 26.472656 35.710938 26.566406 35.75 26.667969 C 35.882812 27.0625 35.976562 27.5 35.996094 27.960938 C 36.019531 28.421875 35.964844 28.902344 35.832031 29.363281 C 35.570312 30.292969 34.996094 31.09375 34.316406 31.703125 C 33.628906 32.320312 32.824219 32.769531 31.953125 33.082031 C 31.734375 33.160156 31.511719 33.230469 31.285156 33.285156 L 31.113281 33.328125 L 31.070312 33.339844 L 31.050781 33.339844 L 31.015625 33.347656 L 30.792969 33.394531 L 30.617188 33.421875 C 30.496094 33.445312 30.378906 33.464844 30.269531 33.476562 C 30.15625 33.492188 30.046875 33.503906 29.9375 33.515625 C 29.714844 33.539062 29.496094 33.554688 29.273438 33.570312 C 28.398438 33.625 27.539062 33.617188 26.691406 33.628906 C 25.847656 33.640625 25.007812 33.664062 24.203125 33.773438 C 23.402344 33.886719 22.632812 34.085938 21.992188 34.460938 C 21.671875 34.648438 21.375 34.867188 21.128906 35.148438 L 21.011719 35.269531 C 20.984375 35.308594 20.972656 35.332031 20.949219 35.363281 L 20.886719 35.453125 C 20.863281 35.480469 20.839844 35.507812 20.820312 35.546875 C 20.78125 35.621094 20.742188 35.695312 20.699219 35.769531 L 20.613281 35.996094 C 20.40625 36.617188 20.527344 37.304688 20.976562 37.835938 C 21.203125 38.097656 21.496094 38.320312 21.828125 38.496094 C 22.003906 38.566406 22.171875 38.660156 22.367188 38.707031 C 22.457031 38.734375 22.554688 38.769531 22.640625 38.792969 L 22.976562 38.871094 C 23.808594 39.050781 24.710938 39.164062 25.609375 39.289062 C 26.511719 39.417969 27.433594 39.570312 28.328125 39.851562 C 28.769531 39.996094 29.210938 40.160156 29.625 40.378906 L 29.78125 40.457031 L 29.800781 40.464844 C 29.820312 40.476562 29.78125 40.453125 29.851562 40.492188 L 29.886719 40.515625 L 29.953125 40.558594 L 30.09375 40.648438 L 30.160156 40.691406 L 30.195312 40.714844 L 30.234375 40.746094 C 30.339844 40.832031 30.441406 40.921875 30.542969 41.011719 C 30.640625 41.101562 30.714844 41.195312 30.796875 41.289062 C 30.882812 41.378906 30.949219 41.480469 31.019531 41.582031 C 31.085938 41.683594 31.160156 41.78125 31.210938 41.890625 C 31.265625 42 31.320312 42.105469 31.371094 42.210938 L 31.496094 42.546875 C 31.539062 42.65625 31.558594 42.777344 31.585938 42.890625 C 31.617188 43.003906 31.644531 43.117188 31.652344 43.238281 L 31.671875 43.410156 L 31.679688 43.496094 L 31.6875 43.542969 C 31.6875 43.527344 31.6875 43.585938 31.6875 43.585938 L 31.6875 43.605469 C 31.6875 43.710938 31.6875 43.816406 31.6875 43.917969 L 31.683594 43.996094 L 31.675781 44.089844 L 31.652344 44.273438 L 31.625 44.453125 L 31.578125 44.625 C 31.527344 44.851562 31.433594 45.066406 31.332031 45.273438 C 31.121094 45.6875 30.800781 46.027344 30.449219 46.289062 C 30.097656 46.550781 29.714844 46.742188 29.320312 46.863281 C 28.925781 46.988281 28.527344 47.054688 28.132812 47.078125 C 27.9375 47.078125 27.742188 47.089844 27.550781 47.070312 C 27.355469 47.058594 27.1875 47.042969 27.003906 47.023438 C 26.824219 47.007812 26.660156 47.003906 26.488281 46.992188 C 26.320312 46.996094 26.148438 46.984375 25.984375 46.996094 C 25.320312 47.019531 24.679688 47.128906 24.152344 47.390625 C 23.625 47.648438 23.230469 48.082031 23.085938 48.589844 C 23.011719 48.84375 22.984375 49.101562 22.984375 49.351562 C 22.996094 49.601562 23.019531 49.847656 23.078125 50.078125 C 23.179688 50.539062 23.339844 50.953125 23.507812 51.3125 C 23.847656 52.035156 24.199219 52.5625 24.441406 52.914062 C 24.558594 53.09375 24.664062 53.222656 24.726562 53.3125 C 24.792969 53.402344 24.828125 53.449219 24.828125 53.449219 C 24.828125 53.449219 24.792969 53.402344 24.722656 53.316406 C 24.652344 53.230469 24.542969 53.105469 24.414062 52.933594 C 24.152344 52.59375 23.773438 52.082031 23.394531 51.371094 C 23.207031 51.011719 23.019531 50.601562 22.886719 50.125 C 22.816406 49.886719 22.777344 49.628906 22.753906 49.359375 C 22.738281 49.089844 22.75 48.804688 22.824219 48.515625 C 22.894531 48.226562 23.03125 47.941406 23.234375 47.695312 C 23.433594 47.441406 23.695312 47.234375 23.980469 47.070312 C 24.566406 46.742188 25.253906 46.59375 25.957031 46.535156 C 26.132812 46.515625 26.3125 46.515625 26.492188 46.503906 C 26.671875 46.507812 26.859375 46.503906 27.039062 46.511719 C 27.214844 46.519531 27.40625 46.527344 27.574219 46.53125 C 27.746094 46.539062 27.917969 46.519531 28.089844 46.511719 C 28.4375 46.472656 28.78125 46.394531 29.113281 46.273438 C 29.445312 46.148438 29.757812 45.972656 30.027344 45.75 C 30.292969 45.527344 30.523438 45.253906 30.664062 44.9375 C 30.730469 44.78125 30.796875 44.617188 30.824219 44.441406 L 30.855469 44.316406 L 30.863281 44.191406 L 30.875 44.066406 L 30.878906 44.007812 L 30.878906 43.929688 C 30.875 43.828125 30.871094 43.722656 30.867188 43.621094 L 30.824219 43.367188 C 30.8125 43.277344 30.785156 43.191406 30.757812 43.101562 C 30.730469 43.015625 30.714844 42.921875 30.671875 42.835938 C 30.546875 42.488281 30.335938 42.175781 30.09375 41.902344 C 30.027344 41.839844 29.96875 41.765625 29.902344 41.714844 C 29.835938 41.664062 29.773438 41.613281 29.710938 41.5625 L 29.6875 41.542969 L 29.652344 41.523438 L 29.582031 41.480469 L 29.441406 41.402344 L 29.371094 41.359375 L 29.335938 41.339844 C 29.394531 41.371094 29.34375 41.34375 29.351562 41.347656 L 29.332031 41.34375 L 29.195312 41.28125 C 28.824219 41.109375 28.433594 40.984375 28.027344 40.878906 C 27.222656 40.664062 26.359375 40.566406 25.472656 40.484375 C 24.578125 40.402344 23.667969 40.34375 22.707031 40.183594 L 22.367188 40.121094 C 22.230469 40.097656 22.113281 40.058594 21.984375 40.027344 C 21.726562 39.976562 21.480469 39.867188 21.230469 39.773438 C 20.742188 39.546875 20.269531 39.238281 19.875 38.824219 C 19.480469 38.40625 19.1875 37.875 19.042969 37.300781 C 18.894531 36.726562 18.90625 36.109375 19.058594 35.542969 C 19.105469 35.40625 19.148438 35.265625 19.195312 35.128906 L 19.382812 34.738281 C 19.445312 34.609375 19.542969 34.476562 19.625 34.347656 C 19.667969 34.285156 19.714844 34.214844 19.757812 34.160156 L 19.867188 34.03125 C 20.203125 33.609375 20.625 33.257812 21.066406 32.96875 C 21.964844 32.386719 22.957031 32.089844 23.890625 31.910156 C 24.835938 31.730469 25.746094 31.664062 26.617188 31.609375 C 27.484375 31.554688 28.320312 31.515625 29.09375 31.429688 C 29.285156 31.40625 29.476562 31.382812 29.65625 31.351562 C 29.75 31.339844 29.839844 31.324219 29.929688 31.308594 C 30.023438 31.292969 30.105469 31.273438 30.183594 31.257812 L 30.304688 31.230469 L 30.449219 31.191406 L 30.523438 31.175781 L 30.558594 31.164062 L 30.578125 31.160156 C 30.539062 31.167969 30.574219 31.160156 30.570312 31.160156 L 30.6875 31.125 C 30.847656 31.078125 31 31.019531 31.152344 30.960938 C 31.75 30.710938 32.289062 30.359375 32.683594 29.960938 C 33.082031 29.5625 33.335938 29.121094 33.421875 28.71875 C 33.511719 28.3125 33.460938 27.925781 33.304688 27.535156 C 33.285156 27.492188 33.265625 27.433594 33.246094 27.398438 C 33.226562 27.359375 33.207031 27.324219 33.191406 27.285156 C 33.152344 27.21875 33.117188 27.152344 33.082031 27.089844 L 33.054688 27.039062 L 33.046875 27.027344 C 33.054688 27.039062 33.019531 26.980469 33.058594 27.054688 L 33.050781 27.039062 L 33.003906 26.976562 C 32.945312 26.894531 32.894531 26.808594 32.828125 26.742188 C 32.765625 26.671875 32.710938 26.597656 32.636719 26.542969 C 32.121094 26.054688 31.425781 25.84375 30.777344 25.746094 C 30.136719 25.652344 29.554688 25.65625 29.175781 25.664062 C 29.082031 25.667969 28.996094 25.667969 28.925781 25.671875 C 28.84375 25.675781 28.773438 25.675781 28.71875 25.679688 C 28.609375 25.683594 28.550781 25.6875 28.550781 25.6875 C 27.734375 25.722656 27.042969 25.089844 27.007812 24.273438 C 26.972656 23.460938 27.605469 22.769531 28.417969 22.730469 C 28.445312 22.730469 28.464844 22.730469 28.488281 22.730469 L 28.496094 22.730469 " fill-opacity="1" fill-rule="nonzero"/></g><g fill="#0e9ebe" fill-opacity="1"><g transform="translate(40.887158, 34.206267)"><g><path d="M 7.046875 0 L 7.046875 -3.421875 L 3.859375 -3.421875 L 3.859375 0 L 0.96875 0 L 0.96875 -9.015625 L 3.859375 -9.015625 L 3.859375 -5.71875 L 7.046875 -5.71875 L 7.046875 -9.015625 L 9.9375 -9.015625 L 9.9375 0 Z M 7.046875 0 "/></g></g></g><g fill="#0e9ebe" fill-opacity="1"><g transform="translate(51.792064, 34.206267)"><g><path d="M 4.359375 -7.078125 C 5.628906 -7.078125 6.597656 -6.78125 7.265625 -6.1875 C 7.929688 -5.59375 8.265625 -4.679688 8.265625 -3.453125 L 8.265625 -3.015625 L 3.078125 -3.015625 C 3.078125 -2.515625 3.1875 -2.132812 3.40625 -1.875 C 3.632812 -1.625 3.988281 -1.5 4.46875 -1.5 C 4.90625 -1.5 5.222656 -1.59375 5.421875 -1.78125 C 5.628906 -1.96875 5.734375 -2.210938 5.734375 -2.515625 L 8.265625 -2.515625 C 8.265625 -1.671875 7.941406 -1.015625 7.296875 -0.546875 C 6.660156 -0.078125 5.734375 0.15625 4.515625 0.15625 C 3.234375 0.15625 2.238281 -0.140625 1.53125 -0.734375 C 0.820312 -1.335938 0.46875 -2.242188 0.46875 -3.453125 C 0.46875 -4.640625 0.8125 -5.539062 1.5 -6.15625 C 2.195312 -6.769531 3.148438 -7.078125 4.359375 -7.078125 Z M 4.46875 -5.40625 C 3.644531 -5.40625 3.1875 -5.019531 3.09375 -4.25 L 5.625 -4.25 C 5.625 -4.601562 5.519531 -4.882812 5.3125 -5.09375 C 5.113281 -5.300781 4.832031 -5.40625 4.46875 -5.40625 Z M 4.46875 -5.40625 "/></g></g></g><g fill="#0e9ebe" fill-opacity="1"><g transform="translate(60.523846, 34.206267)"><g><path d="M 4.203125 -7.078125 C 5.253906 -7.078125 6.113281 -6.898438 6.78125 -6.546875 C 7.445312 -6.191406 7.78125 -5.613281 7.78125 -4.8125 L 7.78125 -2.125 C 7.78125 -1.976562 7.8125 -1.851562 7.875 -1.75 C 7.945312 -1.65625 8.054688 -1.609375 8.203125 -1.609375 L 8.671875 -1.609375 L 8.671875 -0.109375 C 8.640625 -0.0859375 8.566406 -0.0546875 8.453125 -0.015625 C 8.347656 0.0234375 8.195312 0.0625 8 0.09375 C 7.800781 0.132812 7.570312 0.15625 7.3125 0.15625 C 6.800781 0.15625 6.378906 0.0820312 6.046875 -0.0625 C 5.722656 -0.21875 5.5 -0.429688 5.375 -0.703125 C 5.050781 -0.441406 4.679688 -0.234375 4.265625 -0.078125 C 3.859375 0.078125 3.378906 0.15625 2.828125 0.15625 C 1.203125 0.15625 0.390625 -0.488281 0.390625 -1.78125 C 0.390625 -2.445312 0.570312 -2.957031 0.9375 -3.3125 C 1.300781 -3.664062 1.820312 -3.910156 2.5 -4.046875 C 3.175781 -4.179688 4.066406 -4.25 5.171875 -4.25 L 5.171875 -4.578125 C 5.171875 -4.847656 5.078125 -5.050781 4.890625 -5.1875 C 4.703125 -5.332031 4.457031 -5.40625 4.15625 -5.40625 C 3.894531 -5.40625 3.664062 -5.359375 3.46875 -5.265625 C 3.269531 -5.171875 3.171875 -5.019531 3.171875 -4.8125 L 3.171875 -4.75 L 0.609375 -4.75 C 0.597656 -4.789062 0.59375 -4.851562 0.59375 -4.9375 C 0.59375 -5.59375 0.90625 -6.113281 1.53125 -6.5 C 2.15625 -6.882812 3.046875 -7.078125 4.203125 -7.078125 Z M 5.171875 -3.015625 C 4.429688 -3.015625 3.882812 -2.929688 3.53125 -2.765625 C 3.175781 -2.609375 3 -2.394531 3 -2.125 C 3 -1.6875 3.296875 -1.46875 3.890625 -1.46875 C 4.234375 -1.46875 4.53125 -1.554688 4.78125 -1.734375 C 5.039062 -1.921875 5.171875 -2.148438 5.171875 -2.421875 Z M 5.171875 -3.015625 "/></g></g></g><g fill="#0e9ebe" fill-opacity="1"><g transform="translate(69.255627, 34.206267)"><g><path d="M 0.875 0 L 0.875 -9.5 L 3.484375 -9.5 L 3.484375 0 Z M 0.875 0 "/></g></g></g><g fill="#0e9ebe" fill-opacity="1"><g transform="translate(73.614971, 34.206267)"><g><path d="M 5.390625 -6.90625 L 5.390625 -5.140625 L 3.921875 -5.140625 L 3.921875 -2.515625 C 3.921875 -2.203125 3.972656 -1.972656 4.078125 -1.828125 C 4.191406 -1.679688 4.382812 -1.609375 4.65625 -1.609375 L 5.390625 -1.609375 L 5.390625 -0.078125 C 5.179688 -0.00390625 4.910156 0.0507812 4.578125 0.09375 C 4.242188 0.132812 3.957031 0.15625 3.71875 0.15625 C 2.945312 0.15625 2.351562 0.015625 1.9375 -0.265625 C 1.53125 -0.546875 1.328125 -1.019531 1.328125 -1.6875 L 1.328125 -5.140625 L 0.359375 -5.140625 L 0.359375 -6.90625 L 1.421875 -6.90625 L 1.984375 -9.015625 L 3.921875 -9.015625 L 3.921875 -6.90625 Z M 5.390625 -6.90625 "/></g></g></g><g fill="#0e9ebe" fill-opacity="1"><g transform="translate(79.427431, 34.206267)"><g><path d="M 3.390625 -6.1875 C 3.671875 -6.46875 4 -6.6875 4.375 -6.84375 C 4.75 -7 5.140625 -7.078125 5.546875 -7.078125 C 6.347656 -7.078125 6.953125 -6.851562 7.359375 -6.40625 C 7.765625 -5.957031 7.96875 -5.316406 7.96875 -4.484375 L 7.96875 0 L 5.359375 0 L 5.359375 -4.15625 C 5.359375 -4.457031 5.28125 -4.695312 5.125 -4.875 C 4.96875 -5.050781 4.753906 -5.140625 4.484375 -5.140625 C 4.160156 -5.140625 3.894531 -5.035156 3.6875 -4.828125 C 3.488281 -4.617188 3.390625 -4.363281 3.390625 -4.0625 L 3.390625 0 L 0.78125 0 L 0.78125 -9.5 L 3.390625 -9.5 Z M 3.390625 -6.1875 "/></g></g></g><g fill="#0e9ebe" fill-opacity="1"><g transform="translate(88.159213, 34.206267)"><g><path d="M 0.96875 -9.015625 L 8.765625 -9.015625 L 8.765625 -6.84375 L 3.859375 -6.84375 L 3.859375 -5.609375 L 8.046875 -5.609375 L 8.046875 -3.53125 L 3.859375 -3.53125 L 3.859375 -2.15625 L 8.84375 -2.15625 L 8.84375 0 L 0.96875 0 Z M 0.96875 -9.015625 "/></g></g></g><g fill="#0e9ebe" fill-opacity="1"><g transform="translate(97.611009, 34.206267)"><g><path d="M 4.203125 -7.078125 C 5.253906 -7.078125 6.113281 -6.898438 6.78125 -6.546875 C 7.445312 -6.191406 7.78125 -5.613281 7.78125 -4.8125 L 7.78125 -2.125 C 7.78125 -1.976562 7.8125 -1.851562 7.875 -1.75 C 7.945312 -1.65625 8.054688 -1.609375 8.203125 -1.609375 L 8.671875 -1.609375 L 8.671875 -0.109375 C 8.640625 -0.0859375 8.566406 -0.0546875 8.453125 -0.015625 C 8.347656 0.0234375 8.195312 0.0625 8 0.09375 C 7.800781 0.132812 7.570312 0.15625 7.3125 0.15625 C 6.800781 0.15625 6.378906 0.0820312 6.046875 -0.0625 C 5.722656 -0.21875 5.5 -0.429688 5.375 -0.703125 C 5.050781 -0.441406 4.679688 -0.234375 4.265625 -0.078125 C 3.859375 0.078125 3.378906 0.15625 2.828125 0.15625 C 1.203125 0.15625 0.390625 -0.488281 0.390625 -1.78125 C 0.390625 -2.445312 0.570312 -2.957031 0.9375 -3.3125 C 1.300781 -3.664062 1.820312 -3.910156 2.5 -4.046875 C 3.175781 -4.179688 4.066406 -4.25 5.171875 -4.25 L 5.171875 -4.578125 C 5.171875 -4.847656 5.078125 -5.050781 4.890625 -5.1875 C 4.703125 -5.332031 4.457031 -5.40625 4.15625 -5.40625 C 3.894531 -5.40625 3.664062 -5.359375 3.46875 -5.265625 C 3.269531 -5.171875 3.171875 -5.019531 3.171875 -4.8125 L 3.171875 -4.75 L 0.609375 -4.75 C 0.597656 -4.789062 0.59375 -4.851562 0.59375 -4.9375 C 0.59375 -5.59375 0.90625 -6.113281 1.53125 -6.5 C 2.15625 -6.882812 3.046875 -7.078125 4.203125 -7.078125 Z M 5.171875 -3.015625 C 4.429688 -3.015625 3.882812 -2.929688 3.53125 -2.765625 C 3.175781 -2.609375 3 -2.394531 3 -2.125 C 3 -1.6875 3.296875 -1.46875 3.890625 -1.46875 C 4.234375 -1.46875 4.53125 -1.554688 4.78125 -1.734375 C 5.039062 -1.921875 5.171875 -2.148438 5.171875 -2.421875 Z M 5.171875 -3.015625 "/></g></g></g><g fill="#0e9ebe" fill-opacity="1"><g transform="translate(106.342791, 34.206267)"><g><path d="M 4.078125 -7.078125 C 4.992188 -7.078125 5.773438 -6.894531 6.421875 -6.53125 C 7.066406 -6.164062 7.390625 -5.601562 7.390625 -4.84375 L 4.96875 -4.84375 C 4.96875 -5.09375 4.851562 -5.269531 4.625 -5.375 C 4.46875 -5.46875 4.269531 -5.515625 4.03125 -5.515625 C 3.40625 -5.515625 3.09375 -5.363281 3.09375 -5.0625 C 3.09375 -4.894531 3.203125 -4.773438 3.421875 -4.703125 C 3.640625 -4.640625 3.992188 -4.566406 4.484375 -4.484375 C 5.097656 -4.398438 5.609375 -4.296875 6.015625 -4.171875 C 6.429688 -4.054688 6.789062 -3.847656 7.09375 -3.546875 C 7.40625 -3.253906 7.5625 -2.835938 7.5625 -2.296875 C 7.5625 -1.410156 7.226562 -0.78125 6.5625 -0.40625 C 5.90625 -0.03125 5.046875 0.15625 3.984375 0.15625 C 3.367188 0.15625 2.789062 0.0703125 2.25 -0.09375 C 1.707031 -0.269531 1.265625 -0.535156 0.921875 -0.890625 C 0.585938 -1.242188 0.421875 -1.695312 0.421875 -2.25 L 2.84375 -2.25 L 2.84375 -2.203125 C 2.851562 -1.898438 2.976562 -1.691406 3.21875 -1.578125 C 3.457031 -1.460938 3.710938 -1.40625 3.984375 -1.40625 C 4.703125 -1.40625 5.0625 -1.570312 5.0625 -1.90625 C 5.0625 -2.082031 4.945312 -2.207031 4.71875 -2.28125 C 4.5 -2.363281 4.128906 -2.453125 3.609375 -2.546875 C 2.992188 -2.648438 2.488281 -2.757812 2.09375 -2.875 C 1.695312 -3 1.347656 -3.207031 1.046875 -3.5 C 0.753906 -3.789062 0.609375 -4.203125 0.609375 -4.734375 C 0.609375 -5.578125 0.925781 -6.175781 1.5625 -6.53125 C 2.207031 -6.894531 3.046875 -7.078125 4.078125 -7.078125 Z M 4.078125 -7.078125 "/></g></g></g><g fill="#0e9ebe" fill-opacity="1"><g transform="translate(114.34147, 34.206267)"><g><path d="M 4.359375 -7.078125 C 5.628906 -7.078125 6.597656 -6.78125 7.265625 -6.1875 C 7.929688 -5.59375 8.265625 -4.679688 8.265625 -3.453125 L 8.265625 -3.015625 L 3.078125 -3.015625 C 3.078125 -2.515625 3.1875 -2.132812 3.40625 -1.875 C 3.632812 -1.625 3.988281 -1.5 4.46875 -1.5 C 4.90625 -1.5 5.222656 -1.59375 5.421875 -1.78125 C 5.628906 -1.96875 5.734375 -2.210938 5.734375 -2.515625 L 8.265625 -2.515625 C 8.265625 -1.671875 7.941406 -1.015625 7.296875 -0.546875 C 6.660156 -0.078125 5.734375 0.15625 4.515625 0.15625 C 3.234375 0.15625 2.238281 -0.140625 1.53125 -0.734375 C 0.820312 -1.335938 0.46875 -2.242188 0.46875 -3.453125 C 0.46875 -4.640625 0.8125 -5.539062 1.5 -6.15625 C 2.195312 -6.769531 3.148438 -7.078125 4.359375 -7.078125 Z M 4.46875 -5.40625 C 3.644531 -5.40625 3.1875 -5.019531 3.09375 -4.25 L 5.625 -4.25 C 5.625 -4.601562 5.519531 -4.882812 5.3125 -5.09375 C 5.113281 -5.300781 4.832031 -5.40625 4.46875 -5.40625 Z M 4.46875 -5.40625 "/></g></g></g><g fill="#092862" fill-opacity="1"><g transform="translate(40.89436, 45.009454)"><g><path d="M 7.296875 -6.046875 L 7.296875 0 L 6.1875 0 L 6.1875 -3.703125 C 6.1875 -3.785156 6.1875 -3.867188 6.1875 -3.953125 C 6.195312 -4.046875 6.207031 -4.140625 6.21875 -4.234375 L 4.5 -0.953125 C 4.394531 -0.773438 4.25 -0.6875 4.0625 -0.6875 L 3.875 -0.6875 C 3.78125 -0.6875 3.695312 -0.707031 3.625 -0.75 C 3.550781 -0.789062 3.488281 -0.859375 3.4375 -0.953125 L 1.703125 -4.25 C 1.710938 -4.144531 1.71875 -4.046875 1.71875 -3.953125 C 1.726562 -3.867188 1.734375 -3.785156 1.734375 -3.703125 L 1.734375 0 L 0.640625 0 L 0.640625 -6.046875 L 1.578125 -6.046875 C 1.628906 -6.046875 1.675781 -6.039062 1.71875 -6.03125 C 1.757812 -6.03125 1.796875 -6.023438 1.828125 -6.015625 C 1.859375 -6.003906 1.890625 -5.984375 1.921875 -5.953125 C 1.953125 -5.929688 1.976562 -5.894531 2 -5.84375 L 3.6875 -2.625 C 3.738281 -2.53125 3.785156 -2.429688 3.828125 -2.328125 C 3.878906 -2.222656 3.925781 -2.113281 3.96875 -2 C 4.007812 -2.113281 4.050781 -2.222656 4.09375 -2.328125 C 4.144531 -2.429688 4.195312 -2.535156 4.25 -2.640625 L 5.921875 -5.84375 C 5.953125 -5.894531 5.976562 -5.929688 6 -5.953125 C 6.03125 -5.984375 6.0625 -6.003906 6.09375 -6.015625 C 6.125 -6.023438 6.160156 -6.03125 6.203125 -6.03125 C 6.242188 -6.039062 6.289062 -6.046875 6.34375 -6.046875 Z M 7.296875 -6.046875 "/></g></g></g><g fill="#092862" fill-opacity="1"><g transform="translate(50.659544, 45.009454)"><g><path d="M 3.203125 -2.65625 C 3.203125 -2.769531 3.1875 -2.878906 3.15625 -2.984375 C 3.125 -3.097656 3.070312 -3.195312 3 -3.28125 C 2.925781 -3.363281 2.835938 -3.425781 2.734375 -3.46875 C 2.628906 -3.519531 2.503906 -3.546875 2.359375 -3.546875 C 2.078125 -3.546875 1.859375 -3.46875 1.703125 -3.3125 C 1.554688 -3.15625 1.457031 -2.9375 1.40625 -2.65625 Z M 1.390625 -1.96875 C 1.421875 -1.5625 1.535156 -1.265625 1.734375 -1.078125 C 1.929688 -0.898438 2.179688 -0.8125 2.484375 -0.8125 C 2.648438 -0.8125 2.789062 -0.828125 2.90625 -0.859375 C 3.019531 -0.898438 3.117188 -0.941406 3.203125 -0.984375 C 3.285156 -1.035156 3.363281 -1.078125 3.4375 -1.109375 C 3.507812 -1.148438 3.582031 -1.171875 3.65625 -1.171875 C 3.738281 -1.171875 3.804688 -1.132812 3.859375 -1.0625 L 4.1875 -0.65625 C 4.070312 -0.507812 3.9375 -0.390625 3.78125 -0.296875 C 3.632812 -0.203125 3.484375 -0.128906 3.328125 -0.078125 C 3.171875 -0.0234375 3.007812 0.0078125 2.84375 0.03125 C 2.6875 0.0507812 2.535156 0.0625 2.390625 0.0625 C 2.085938 0.0625 1.804688 0.015625 1.546875 -0.078125 C 1.285156 -0.179688 1.054688 -0.328125 0.859375 -0.515625 C 0.671875 -0.710938 0.519531 -0.953125 0.40625 -1.234375 C 0.300781 -1.523438 0.25 -1.859375 0.25 -2.234375 C 0.25 -2.523438 0.296875 -2.800781 0.390625 -3.0625 C 0.484375 -3.320312 0.617188 -3.546875 0.796875 -3.734375 C 0.984375 -3.921875 1.203125 -4.070312 1.453125 -4.1875 C 1.710938 -4.300781 2.007812 -4.359375 2.34375 -4.359375 C 2.613281 -4.359375 2.863281 -4.3125 3.09375 -4.21875 C 3.320312 -4.132812 3.519531 -4.007812 3.6875 -3.84375 C 3.863281 -3.675781 3.992188 -3.472656 4.078125 -3.234375 C 4.171875 -2.992188 4.21875 -2.71875 4.21875 -2.40625 C 4.21875 -2.320312 4.210938 -2.25 4.203125 -2.1875 C 4.203125 -2.132812 4.191406 -2.085938 4.171875 -2.046875 C 4.148438 -2.015625 4.125 -1.992188 4.09375 -1.984375 C 4.0625 -1.972656 4.019531 -1.96875 3.96875 -1.96875 Z M 1.390625 -1.96875 "/></g></g></g><g fill="#092862" fill-opacity="1"><g transform="translate(56.967181, 45.009454)"><g><path d="M 3.125 -3.171875 C 3.019531 -3.296875 2.898438 -3.382812 2.765625 -3.4375 C 2.640625 -3.488281 2.507812 -3.515625 2.375 -3.515625 C 2.238281 -3.515625 2.113281 -3.488281 2 -3.4375 C 1.882812 -3.382812 1.785156 -3.300781 1.703125 -3.1875 C 1.617188 -3.070312 1.550781 -2.925781 1.5 -2.75 C 1.457031 -2.582031 1.4375 -2.375 1.4375 -2.125 C 1.4375 -1.894531 1.453125 -1.695312 1.484375 -1.53125 C 1.523438 -1.363281 1.578125 -1.226562 1.640625 -1.125 C 1.710938 -1.019531 1.796875 -0.941406 1.890625 -0.890625 C 1.992188 -0.847656 2.109375 -0.828125 2.234375 -0.828125 C 2.429688 -0.828125 2.597656 -0.863281 2.734375 -0.9375 C 2.867188 -1.019531 3 -1.140625 3.125 -1.296875 Z M 4.28125 -6.203125 L 4.28125 0 L 3.5625 0 C 3.414062 0 3.320312 -0.0664062 3.28125 -0.203125 L 3.1875 -0.578125 C 3.101562 -0.484375 3.007812 -0.394531 2.90625 -0.3125 C 2.8125 -0.238281 2.707031 -0.171875 2.59375 -0.109375 C 2.488281 -0.0546875 2.375 -0.015625 2.25 0.015625 C 2.125 0.046875 1.984375 0.0625 1.828125 0.0625 C 1.597656 0.0625 1.382812 0.015625 1.1875 -0.078125 C 1 -0.179688 0.832031 -0.328125 0.6875 -0.515625 C 0.550781 -0.703125 0.445312 -0.929688 0.375 -1.203125 C 0.300781 -1.472656 0.265625 -1.78125 0.265625 -2.125 C 0.265625 -2.445312 0.304688 -2.742188 0.390625 -3.015625 C 0.472656 -3.296875 0.59375 -3.535156 0.75 -3.734375 C 0.914062 -3.929688 1.113281 -4.085938 1.34375 -4.203125 C 1.570312 -4.316406 1.828125 -4.375 2.109375 -4.375 C 2.335938 -4.375 2.53125 -4.335938 2.6875 -4.265625 C 2.851562 -4.203125 3 -4.109375 3.125 -3.984375 L 3.125 -6.203125 Z M 4.28125 -6.203125 "/></g></g></g><g fill="#092862" fill-opacity="1"><g transform="translate(63.566063, 45.009454)"><g><path d="M 1.65625 -4.296875 L 1.65625 0 L 0.515625 0 L 0.515625 -4.296875 Z M 1.796875 -5.515625 C 1.796875 -5.421875 1.773438 -5.332031 1.734375 -5.25 C 1.691406 -5.164062 1.640625 -5.085938 1.578125 -5.015625 C 1.515625 -4.953125 1.4375 -4.898438 1.34375 -4.859375 C 1.257812 -4.828125 1.164062 -4.8125 1.0625 -4.8125 C 0.96875 -4.8125 0.878906 -4.828125 0.796875 -4.859375 C 0.710938 -4.898438 0.640625 -4.953125 0.578125 -5.015625 C 0.515625 -5.085938 0.460938 -5.164062 0.421875 -5.25 C 0.390625 -5.332031 0.375 -5.421875 0.375 -5.515625 C 0.375 -5.609375 0.390625 -5.695312 0.421875 -5.78125 C 0.460938 -5.863281 0.515625 -5.9375 0.578125 -6 C 0.640625 -6.070312 0.710938 -6.125 0.796875 -6.15625 C 0.878906 -6.195312 0.96875 -6.21875 1.0625 -6.21875 C 1.164062 -6.21875 1.257812 -6.195312 1.34375 -6.15625 C 1.4375 -6.125 1.515625 -6.070312 1.578125 -6 C 1.640625 -5.9375 1.691406 -5.863281 1.734375 -5.78125 C 1.773438 -5.695312 1.796875 -5.609375 1.796875 -5.515625 Z M 1.796875 -5.515625 "/></g></g></g><g fill="#092862" fill-opacity="1"><g transform="translate(67.576984, 45.009454)"><g><path d="M 3.59375 -3.328125 C 3.5625 -3.285156 3.523438 -3.253906 3.484375 -3.234375 C 3.453125 -3.210938 3.40625 -3.203125 3.34375 -3.203125 C 3.289062 -3.203125 3.238281 -3.21875 3.1875 -3.25 C 3.132812 -3.28125 3.070312 -3.3125 3 -3.34375 C 2.9375 -3.382812 2.859375 -3.421875 2.765625 -3.453125 C 2.679688 -3.484375 2.570312 -3.5 2.4375 -3.5 C 2.257812 -3.5 2.109375 -3.46875 1.984375 -3.40625 C 1.859375 -3.34375 1.753906 -3.253906 1.671875 -3.140625 C 1.585938 -3.023438 1.523438 -2.882812 1.484375 -2.71875 C 1.441406 -2.550781 1.421875 -2.363281 1.421875 -2.15625 C 1.421875 -1.71875 1.507812 -1.378906 1.6875 -1.140625 C 1.863281 -0.910156 2.101562 -0.796875 2.40625 -0.796875 C 2.507812 -0.796875 2.597656 -0.800781 2.671875 -0.8125 C 2.753906 -0.832031 2.820312 -0.859375 2.875 -0.890625 C 2.9375 -0.921875 2.988281 -0.953125 3.03125 -0.984375 C 3.070312 -1.015625 3.109375 -1.039062 3.140625 -1.0625 C 3.179688 -1.09375 3.21875 -1.117188 3.25 -1.140625 C 3.289062 -1.160156 3.335938 -1.171875 3.390625 -1.171875 C 3.472656 -1.171875 3.539062 -1.132812 3.59375 -1.0625 L 3.921875 -0.65625 C 3.804688 -0.507812 3.675781 -0.390625 3.53125 -0.296875 C 3.394531 -0.203125 3.25 -0.128906 3.09375 -0.078125 C 2.945312 -0.0234375 2.796875 0.0078125 2.640625 0.03125 C 2.492188 0.0507812 2.347656 0.0625 2.203125 0.0625 C 1.929688 0.0625 1.675781 0.015625 1.4375 -0.078125 C 1.207031 -0.179688 1.003906 -0.328125 0.828125 -0.515625 C 0.648438 -0.703125 0.507812 -0.929688 0.40625 -1.203125 C 0.300781 -1.484375 0.25 -1.800781 0.25 -2.15625 C 0.25 -2.46875 0.296875 -2.757812 0.390625 -3.03125 C 0.484375 -3.300781 0.617188 -3.53125 0.796875 -3.71875 C 0.972656 -3.914062 1.191406 -4.070312 1.453125 -4.1875 C 1.710938 -4.300781 2.015625 -4.359375 2.359375 -4.359375 C 2.691406 -4.359375 2.976562 -4.304688 3.21875 -4.203125 C 3.46875 -4.097656 3.691406 -3.945312 3.890625 -3.75 Z M 3.59375 -3.328125 "/></g></g></g><g fill="#092862" fill-opacity="1"><g transform="translate(73.451905, 45.009454)"><g><path d="M 2.71875 -1.796875 C 2.4375 -1.785156 2.203125 -1.757812 2.015625 -1.71875 C 1.828125 -1.6875 1.675781 -1.640625 1.5625 -1.578125 C 1.457031 -1.523438 1.382812 -1.460938 1.34375 -1.390625 C 1.300781 -1.328125 1.28125 -1.253906 1.28125 -1.171875 C 1.28125 -1.003906 1.320312 -0.882812 1.40625 -0.8125 C 1.5 -0.738281 1.628906 -0.703125 1.796875 -0.703125 C 1.992188 -0.703125 2.160156 -0.734375 2.296875 -0.796875 C 2.441406 -0.867188 2.582031 -0.976562 2.71875 -1.125 Z M 0.375 -3.703125 C 0.632812 -3.921875 0.914062 -4.085938 1.21875 -4.203125 C 1.519531 -4.316406 1.847656 -4.375 2.203125 -4.375 C 2.460938 -4.375 2.691406 -4.332031 2.890625 -4.25 C 3.085938 -4.164062 3.253906 -4.050781 3.390625 -3.90625 C 3.535156 -3.757812 3.644531 -3.582031 3.71875 -3.375 C 3.800781 -3.164062 3.84375 -2.941406 3.84375 -2.703125 L 3.84375 0 L 3.3125 0 C 3.207031 0 3.125 -0.015625 3.0625 -0.046875 C 3.007812 -0.078125 2.960938 -0.140625 2.921875 -0.234375 L 2.828125 -0.515625 C 2.722656 -0.421875 2.617188 -0.335938 2.515625 -0.265625 C 2.421875 -0.191406 2.316406 -0.128906 2.203125 -0.078125 C 2.097656 -0.0351562 1.984375 -0.00390625 1.859375 0.015625 C 1.734375 0.046875 1.59375 0.0625 1.4375 0.0625 C 1.25 0.0625 1.078125 0.0390625 0.921875 0 C 0.773438 -0.0507812 0.644531 -0.125 0.53125 -0.21875 C 0.414062 -0.320312 0.328125 -0.445312 0.265625 -0.59375 C 0.203125 -0.738281 0.171875 -0.910156 0.171875 -1.109375 C 0.171875 -1.265625 0.210938 -1.421875 0.296875 -1.578125 C 0.378906 -1.734375 0.515625 -1.875 0.703125 -2 C 0.898438 -2.132812 1.160156 -2.242188 1.484375 -2.328125 C 1.816406 -2.410156 2.226562 -2.460938 2.71875 -2.484375 L 2.71875 -2.703125 C 2.71875 -2.972656 2.660156 -3.171875 2.546875 -3.296875 C 2.429688 -3.421875 2.269531 -3.484375 2.0625 -3.484375 C 1.894531 -3.484375 1.757812 -3.460938 1.65625 -3.421875 C 1.550781 -3.390625 1.457031 -3.347656 1.375 -3.296875 C 1.300781 -3.253906 1.226562 -3.210938 1.15625 -3.171875 C 1.09375 -3.140625 1.015625 -3.125 0.921875 -3.125 C 0.835938 -3.125 0.769531 -3.144531 0.71875 -3.1875 C 0.664062 -3.226562 0.617188 -3.273438 0.578125 -3.328125 Z M 0.375 -3.703125 "/></g></g></g><g fill="#092862" fill-opacity="1"><g transform="translate(79.559824, 45.009454)"><g><path d="M 1.625 -6.203125 L 1.625 0 L 0.484375 0 L 0.484375 -6.203125 Z M 1.625 -6.203125 "/></g></g></g><g fill="#092862" fill-opacity="1"><g transform="translate(83.520812, 45.009454)"><g/></g></g><g fill="#092862" fill-opacity="1"><g transform="translate(87.344499, 45.009454)"><g><path d="M 4.75 -1.484375 C 4.8125 -1.484375 4.867188 -1.457031 4.921875 -1.40625 L 5.421875 -0.875 C 5.171875 -0.570312 4.863281 -0.335938 4.5 -0.171875 C 4.144531 -0.015625 3.71875 0.0625 3.21875 0.0625 C 2.757812 0.0625 2.347656 -0.0078125 1.984375 -0.15625 C 1.628906 -0.3125 1.328125 -0.523438 1.078125 -0.796875 C 0.828125 -1.078125 0.628906 -1.40625 0.484375 -1.78125 C 0.347656 -2.164062 0.28125 -2.578125 0.28125 -3.015625 C 0.28125 -3.316406 0.3125 -3.601562 0.375 -3.875 C 0.445312 -4.144531 0.546875 -4.394531 0.671875 -4.625 C 0.796875 -4.851562 0.945312 -5.054688 1.125 -5.234375 C 1.300781 -5.421875 1.5 -5.578125 1.71875 -5.703125 C 1.9375 -5.835938 2.175781 -5.9375 2.4375 -6 C 2.707031 -6.070312 2.988281 -6.109375 3.28125 -6.109375 C 3.507812 -6.109375 3.722656 -6.085938 3.921875 -6.046875 C 4.117188 -6.003906 4.300781 -5.945312 4.46875 -5.875 C 4.644531 -5.8125 4.804688 -5.726562 4.953125 -5.625 C 5.097656 -5.53125 5.226562 -5.425781 5.34375 -5.3125 L 4.921875 -4.734375 C 4.898438 -4.703125 4.867188 -4.671875 4.828125 -4.640625 C 4.785156 -4.609375 4.734375 -4.59375 4.671875 -4.59375 C 4.597656 -4.59375 4.523438 -4.617188 4.453125 -4.671875 C 4.390625 -4.722656 4.304688 -4.773438 4.203125 -4.828125 C 4.109375 -4.890625 3.988281 -4.941406 3.84375 -4.984375 C 3.695312 -5.035156 3.507812 -5.0625 3.28125 -5.0625 C 3.03125 -5.0625 2.796875 -5.015625 2.578125 -4.921875 C 2.367188 -4.828125 2.1875 -4.691406 2.03125 -4.515625 C 1.882812 -4.347656 1.769531 -4.132812 1.6875 -3.875 C 1.601562 -3.625 1.5625 -3.335938 1.5625 -3.015625 C 1.5625 -2.691406 1.609375 -2.40625 1.703125 -2.15625 C 1.796875 -1.90625 1.921875 -1.691406 2.078125 -1.515625 C 2.234375 -1.335938 2.414062 -1.203125 2.625 -1.109375 C 2.832031 -1.023438 3.054688 -0.984375 3.296875 -0.984375 C 3.429688 -0.984375 3.554688 -0.988281 3.671875 -1 C 3.796875 -1.007812 3.90625 -1.03125 4 -1.0625 C 4.09375 -1.101562 4.179688 -1.148438 4.265625 -1.203125 C 4.359375 -1.253906 4.453125 -1.320312 4.546875 -1.40625 C 4.578125 -1.425781 4.609375 -1.441406 4.640625 -1.453125 C 4.671875 -1.472656 4.707031 -1.484375 4.75 -1.484375 Z M 4.75 -1.484375 "/></g></g></g><g fill="#092862" fill-opacity="1"><g transform="translate(94.675664, 45.009454)"><g><path d="M 3.203125 -2.65625 C 3.203125 -2.769531 3.1875 -2.878906 3.15625 -2.984375 C 3.125 -3.097656 3.070312 -3.195312 3 -3.28125 C 2.925781 -3.363281 2.835938 -3.425781 2.734375 -3.46875 C 2.628906 -3.519531 2.503906 -3.546875 2.359375 -3.546875 C 2.078125 -3.546875 1.859375 -3.46875 1.703125 -3.3125 C 1.554688 -3.15625 1.457031 -2.9375 1.40625 -2.65625 Z M 1.390625 -1.96875 C 1.421875 -1.5625 1.535156 -1.265625 1.734375 -1.078125 C 1.929688 -0.898438 2.179688 -0.8125 2.484375 -0.8125 C 2.648438 -0.8125 2.789062 -0.828125 2.90625 -0.859375 C 3.019531 -0.898438 3.117188 -0.941406 3.203125 -0.984375 C 3.285156 -1.035156 3.363281 -1.078125 3.4375 -1.109375 C 3.507812 -1.148438 3.582031 -1.171875 3.65625 -1.171875 C 3.738281 -1.171875 3.804688 -1.132812 3.859375 -1.0625 L 4.1875 -0.65625 C 4.070312 -0.507812 3.9375 -0.390625 3.78125 -0.296875 C 3.632812 -0.203125 3.484375 -0.128906 3.328125 -0.078125 C 3.171875 -0.0234375 3.007812 0.0078125 2.84375 0.03125 C 2.6875 0.0507812 2.535156 0.0625 2.390625 0.0625 C 2.085938 0.0625 1.804688 0.015625 1.546875 -0.078125 C 1.285156 -0.179688 1.054688 -0.328125 0.859375 -0.515625 C 0.671875 -0.710938 0.519531 -0.953125 0.40625 -1.234375 C 0.300781 -1.523438 0.25 -1.859375 0.25 -2.234375 C 0.25 -2.523438 0.296875 -2.800781 0.390625 -3.0625 C 0.484375 -3.320312 0.617188 -3.546875 0.796875 -3.734375 C 0.984375 -3.921875 1.203125 -4.070312 1.453125 -4.1875 C 1.710938 -4.300781 2.007812 -4.359375 2.34375 -4.359375 C 2.613281 -4.359375 2.863281 -4.3125 3.09375 -4.21875 C 3.320312 -4.132812 3.519531 -4.007812 3.6875 -3.84375 C 3.863281 -3.675781 3.992188 -3.472656 4.078125 -3.234375 C 4.171875 -2.992188 4.21875 -2.71875 4.21875 -2.40625 C 4.21875 -2.320312 4.210938 -2.25 4.203125 -2.1875 C 4.203125 -2.132812 4.191406 -2.085938 4.171875 -2.046875 C 4.148438 -2.015625 4.125 -1.992188 4.09375 -1.984375 C 4.0625 -1.972656 4.019531 -1.96875 3.96875 -1.96875 Z M 1.390625 -1.96875 "/></g></g></g><g fill="#092862" fill-opacity="1"><g transform="translate(100.983303, 45.009454)"><g><path d="M 1.546875 -3.796875 C 1.628906 -3.878906 1.71875 -3.953125 1.8125 -4.015625 C 1.90625 -4.085938 2.003906 -4.148438 2.109375 -4.203125 C 2.210938 -4.253906 2.320312 -4.289062 2.4375 -4.3125 C 2.5625 -4.34375 2.691406 -4.359375 2.828125 -4.359375 C 3.066406 -4.359375 3.273438 -4.316406 3.453125 -4.234375 C 3.640625 -4.160156 3.789062 -4.050781 3.90625 -3.90625 C 4.03125 -3.757812 4.125 -3.582031 4.1875 -3.375 C 4.25 -3.175781 4.28125 -2.960938 4.28125 -2.734375 L 4.28125 0 L 3.140625 0 L 3.140625 -2.734375 C 3.140625 -2.960938 3.082031 -3.144531 2.96875 -3.28125 C 2.863281 -3.414062 2.703125 -3.484375 2.484375 -3.484375 C 2.316406 -3.484375 2.160156 -3.445312 2.015625 -3.375 C 1.878906 -3.300781 1.75 -3.203125 1.625 -3.078125 L 1.625 0 L 0.46875 0 L 0.46875 -4.296875 L 1.1875 -4.296875 C 1.332031 -4.296875 1.425781 -4.226562 1.46875 -4.09375 Z M 1.546875 -3.796875 "/></g></g></g><g fill="#092862" fill-opacity="1"><g transform="translate(107.5489, 45.009454)"><g><path d="M 1.953125 0.0625 C 1.765625 0.0625 1.59375 0.0351562 1.4375 -0.015625 C 1.289062 -0.078125 1.164062 -0.160156 1.0625 -0.265625 C 0.957031 -0.367188 0.878906 -0.492188 0.828125 -0.640625 C 0.773438 -0.796875 0.75 -0.96875 0.75 -1.15625 L 0.75 -3.46875 L 0.34375 -3.46875 C 0.28125 -3.46875 0.226562 -3.484375 0.1875 -3.515625 C 0.144531 -3.554688 0.125 -3.617188 0.125 -3.703125 L 0.125 -4.15625 L 0.8125 -4.28125 L 1.046875 -5.390625 C 1.078125 -5.515625 1.160156 -5.578125 1.296875 -5.578125 L 1.90625 -5.578125 L 1.90625 -4.265625 L 3 -4.265625 L 3 -3.46875 L 1.90625 -3.46875 L 1.90625 -1.234375 C 1.90625 -1.109375 1.929688 -1.007812 1.984375 -0.9375 C 2.035156 -0.875 2.117188 -0.84375 2.234375 -0.84375 C 2.285156 -0.84375 2.328125 -0.847656 2.359375 -0.859375 C 2.398438 -0.867188 2.4375 -0.878906 2.46875 -0.890625 C 2.5 -0.910156 2.523438 -0.925781 2.546875 -0.9375 C 2.566406 -0.957031 2.59375 -0.96875 2.625 -0.96875 C 2.65625 -0.96875 2.679688 -0.957031 2.703125 -0.9375 C 2.722656 -0.925781 2.742188 -0.898438 2.765625 -0.859375 L 3.109375 -0.3125 C 2.953125 -0.1875 2.773438 -0.09375 2.578125 -0.03125 C 2.378906 0.03125 2.171875 0.0625 1.953125 0.0625 Z M 1.953125 0.0625 "/></g></g></g><g fill="#092862" fill-opacity="1"><g transform="translate(112.537584, 45.009454)"><g><path d="M 3.203125 -2.65625 C 3.203125 -2.769531 3.1875 -2.878906 3.15625 -2.984375 C 3.125 -3.097656 3.070312 -3.195312 3 -3.28125 C 2.925781 -3.363281 2.835938 -3.425781 2.734375 -3.46875 C 2.628906 -3.519531 2.503906 -3.546875 2.359375 -3.546875 C 2.078125 -3.546875 1.859375 -3.46875 1.703125 -3.3125 C 1.554688 -3.15625 1.457031 -2.9375 1.40625 -2.65625 Z M 1.390625 -1.96875 C 1.421875 -1.5625 1.535156 -1.265625 1.734375 -1.078125 C 1.929688 -0.898438 2.179688 -0.8125 2.484375 -0.8125 C 2.648438 -0.8125 2.789062 -0.828125 2.90625 -0.859375 C 3.019531 -0.898438 3.117188 -0.941406 3.203125 -0.984375 C 3.285156 -1.035156 3.363281 -1.078125 3.4375 -1.109375 C 3.507812 -1.148438 3.582031 -1.171875 3.65625 -1.171875 C 3.738281 -1.171875 3.804688 -1.132812 3.859375 -1.0625 L 4.1875 -0.65625 C 4.070312 -0.507812 3.9375 -0.390625 3.78125 -0.296875 C 3.632812 -0.203125 3.484375 -0.128906 3.328125 -0.078125 C 3.171875 -0.0234375 3.007812 0.0078125 2.84375 0.03125 C 2.6875 0.0507812 2.535156 0.0625 2.390625 0.0625 C 2.085938 0.0625 1.804688 0.015625 1.546875 -0.078125 C 1.285156 -0.179688 1.054688 -0.328125 0.859375 -0.515625 C 0.671875 -0.710938 0.519531 -0.953125 0.40625 -1.234375 C 0.300781 -1.523438 0.25 -1.859375 0.25 -2.234375 C 0.25 -2.523438 0.296875 -2.800781 0.390625 -3.0625 C 0.484375 -3.320312 0.617188 -3.546875 0.796875 -3.734375 C 0.984375 -3.921875 1.203125 -4.070312 1.453125 -4.1875 C 1.710938 -4.300781 2.007812 -4.359375 2.34375 -4.359375 C 2.613281 -4.359375 2.863281 -4.3125 3.09375 -4.21875 C 3.320312 -4.132812 3.519531 -4.007812 3.6875 -3.84375 C 3.863281 -3.675781 3.992188 -3.472656 4.078125 -3.234375 C 4.171875 -2.992188 4.21875 -2.71875 4.21875 -2.40625 C 4.21875 -2.320312 4.210938 -2.25 4.203125 -2.1875 C 4.203125 -2.132812 4.191406 -2.085938 4.171875 -2.046875 C 4.148438 -2.015625 4.125 -1.992188 4.09375 -1.984375 C 4.0625 -1.972656 4.019531 -1.96875 3.96875 -1.96875 Z M 1.390625 -1.96875 "/></g></g></g><g fill="#092862" fill-opacity="1"><g transform="translate(118.845222, 45.009454)"><g><path d="M 1.546875 -3.578125 C 1.679688 -3.828125 1.835938 -4.019531 2.015625 -4.15625 C 2.203125 -4.300781 2.410156 -4.375 2.640625 -4.375 C 2.835938 -4.375 3 -4.328125 3.125 -4.234375 L 3.046875 -3.390625 C 3.035156 -3.335938 3.015625 -3.300781 2.984375 -3.28125 C 2.953125 -3.257812 2.910156 -3.25 2.859375 -3.25 C 2.816406 -3.25 2.753906 -3.253906 2.671875 -3.265625 C 2.585938 -3.273438 2.507812 -3.28125 2.4375 -3.28125 C 2.332031 -3.28125 2.238281 -3.265625 2.15625 -3.234375 C 2.070312 -3.203125 2 -3.15625 1.9375 -3.09375 C 1.875 -3.039062 1.816406 -2.972656 1.765625 -2.890625 C 1.710938 -2.816406 1.664062 -2.726562 1.625 -2.625 L 1.625 0 L 0.46875 0 L 0.46875 -4.296875 L 1.15625 -4.296875 C 1.269531 -4.296875 1.347656 -4.273438 1.390625 -4.234375 C 1.441406 -4.191406 1.472656 -4.117188 1.484375 -4.015625 Z M 1.546875 -3.578125 "/></g></g></g><g clip-path="url(#602c8e06c7)"><path fill="#ff6f61" d="M 85.640625 35.816406 C 85.792969 35.824219 85.945312 35.839844 86.097656 35.839844 C 90.546875 35.847656 94.992188 35.847656 99.4375 35.851562 C 100.492188 35.851562 101.546875 35.855469 102.601562 35.847656 C 104.105469 35.839844 105.605469 35.816406 107.105469 35.816406 C 108.484375 35.8125 109.867188 35.835938 111.246094 35.839844 C 111.828125 35.84375 112.40625 35.832031 112.984375 35.832031 C 114.089844 35.835938 115.195312 35.84375 116.300781 35.84375 C 116.898438 35.84375 117.496094 35.828125 118.089844 35.828125 C 119.195312 35.832031 120.300781 35.847656 121.40625 35.851562 C 122.34375 35.855469 123.277344 35.855469 124.210938 35.847656 C 124.554688 35.847656 124.632812 35.878906 124.75 36.183594 C 124.871094 36.515625 124.972656 36.851562 125.121094 37.300781 C 125.210938 36.832031 125.285156 36.480469 125.34375 36.128906 C 125.664062 34.214844 125.984375 32.296875 126.304688 30.375 C 126.375 29.957031 126.476562 29.832031 126.734375 29.855469 C 126.960938 29.875 127.039062 29.988281 127.085938 30.394531 C 127.257812 31.9375 127.425781 33.484375 127.59375 35.027344 C 127.742188 36.367188 127.886719 37.703125 128.039062 39.042969 C 128.191406 40.433594 128.351562 41.824219 128.507812 43.21875 C 128.59375 43.996094 128.679688 44.777344 128.820312 45.5625 C 128.863281 45.246094 128.914062 44.933594 128.9375 44.617188 C 129.019531 43.507812 129.085938 42.398438 129.167969 41.292969 C 129.21875 40.628906 129.289062 39.964844 129.335938 39.300781 C 129.421875 38.160156 129.492188 37.023438 129.578125 35.882812 C 129.660156 34.777344 129.753906 33.671875 129.835938 32.566406 C 129.917969 31.476562 129.996094 30.382812 130.082031 29.292969 C 130.179688 28.03125 130.28125 26.773438 130.378906 25.511719 C 130.390625 25.351562 130.394531 25.199219 130.578125 25.136719 C 130.8125 25.050781 131.015625 25.160156 131.066406 25.429688 C 131.125 25.730469 131.152344 26.039062 131.1875 26.34375 C 131.40625 28.171875 131.613281 30.007812 131.839844 31.835938 C 131.992188 33.039062 132.167969 34.238281 132.324219 35.441406 C 132.371094 35.796875 132.386719 36.152344 132.429688 36.507812 C 132.453125 36.726562 132.507812 36.941406 132.621094 37.160156 C 132.742188 36.726562 132.855469 36.292969 132.980469 35.867188 C 133.0625 35.585938 133.167969 35.316406 133.25 35.039062 C 133.300781 34.867188 133.398438 34.78125 133.578125 34.773438 C 133.789062 34.765625 133.902344 34.882812 133.949219 35.0625 C 134.066406 35.523438 134.175781 35.988281 134.289062 36.453125 C 134.503906 37.347656 134.71875 38.246094 134.933594 39.140625 C 134.957031 39.238281 135.003906 39.328125 135.074219 39.523438 C 135.273438 38.453125 135.449219 37.484375 135.625 36.515625 C 135.878906 35.105469 136.128906 33.691406 136.382812 32.28125 C 136.390625 32.25 136.402344 32.214844 136.40625 32.183594 C 136.441406 31.96875 136.5 31.761719 136.761719 31.753906 C 137.003906 31.75 137.097656 31.925781 137.183594 32.128906 C 137.613281 33.171875 138.054688 34.207031 138.496094 35.246094 C 138.578125 35.433594 138.660156 35.617188 138.75 35.808594 C 138.902344 35.820312 139.039062 35.835938 139.171875 35.835938 C 141.753906 35.835938 144.335938 35.835938 146.917969 35.835938 C 147.023438 35.835938 147.121094 35.820312 147.226562 35.808594 C 147.226562 36.015625 147.226562 36.222656 147.226562 36.425781 C 146.96875 36.421875 146.710938 36.410156 146.457031 36.410156 C 143.925781 36.410156 141.394531 36.410156 138.863281 36.410156 C 138.269531 36.410156 138.269531 36.40625 138.042969 35.847656 C 137.699219 34.992188 137.355469 34.140625 136.925781 33.28125 C 136.871094 33.515625 136.808594 33.746094 136.765625 33.980469 C 136.359375 36.230469 135.957031 38.484375 135.550781 40.734375 C 135.507812 40.96875 135.46875 41.203125 135.421875 41.4375 C 135.390625 41.59375 135.28125 41.664062 135.128906 41.675781 C 134.957031 41.691406 134.824219 41.632812 134.761719 41.464844 C 134.730469 41.386719 134.714844 41.304688 134.695312 41.21875 C 134.355469 39.792969 134.011719 38.363281 133.667969 36.9375 C 133.640625 36.824219 133.59375 36.714844 133.527344 36.519531 C 133.421875 36.855469 133.34375 37.109375 133.269531 37.363281 C 133.101562 37.953125 132.929688 38.542969 132.765625 39.132812 C 132.703125 39.351562 132.5625 39.433594 132.34375 39.414062 C 132.132812 39.390625 132.066406 39.25 132.042969 39.0625 C 131.9375 38.167969 131.832031 37.273438 131.726562 36.378906 C 131.640625 35.683594 131.554688 34.992188 131.472656 34.296875 C 131.316406 33.011719 131.160156 31.722656 131.007812 30.433594 C 130.960938 30.0625 130.910156 29.695312 130.8125 29.320312 C 130.785156 29.425781 130.738281 29.535156 130.730469 29.644531 C 130.648438 30.683594 130.574219 31.722656 130.5 32.761719 C 130.371094 34.535156 130.25 36.304688 130.117188 38.078125 C 130.003906 39.59375 129.882812 41.105469 129.761719 42.621094 C 129.636719 44.1875 129.507812 45.753906 129.386719 47.320312 C 129.339844 47.933594 129.304688 48.546875 129.261719 49.160156 C 129.253906 49.316406 129.25 49.46875 129.230469 49.621094 C 129.207031 49.832031 129.117188 49.980469 128.878906 49.984375 C 128.644531 49.984375 128.554688 49.851562 128.53125 49.628906 C 128.484375 49.1875 128.414062 48.75 128.367188 48.308594 C 128.214844 46.898438 128.074219 45.488281 127.914062 44.078125 C 127.734375 42.449219 127.535156 40.824219 127.351562 39.191406 C 127.226562 38.089844 127.121094 36.984375 126.996094 35.882812 C 126.890625 34.921875 126.773438 33.964844 126.652344 32.929688 C 126.585938 33.054688 126.539062 33.109375 126.53125 33.171875 C 126.414062 33.910156 126.3125 34.652344 126.1875 35.394531 C 126.042969 36.234375 125.878906 37.070312 125.726562 37.910156 C 125.683594 38.148438 125.640625 38.382812 125.597656 38.617188 C 125.566406 38.785156 125.46875 38.933594 125.304688 38.921875 C 125.175781 38.917969 125.027344 38.824219 124.933594 38.722656 C 124.835938 38.613281 124.785156 38.457031 124.738281 38.3125 C 124.523438 37.703125 124.3125 37.089844 124.089844 36.4375 C 123.957031 36.429688 123.808594 36.40625 123.65625 36.40625 C 122.125 36.414062 120.589844 36.429688 119.054688 36.429688 C 117.054688 36.429688 115.054688 36.414062 113.058594 36.410156 C 111.007812 36.40625 108.960938 36.40625 106.910156 36.40625 C 105.460938 36.40625 104.011719 36.40625 102.558594 36.40625 C 97.054688 36.40625 91.554688 36.40625 86.050781 36.40625 C 85.914062 36.40625 85.777344 36.417969 85.640625 36.421875 C 85.640625 36.226562 85.640625 36.019531 85.640625 35.816406 Z M 85.640625 35.816406 " fill-opacity="1" fill-rule="nonzero"/></g></svg>